# xmcd CD database file
#
# Track frame offsets:
#	150
#	17190
#	33560
#	63705
#	79393
#	96268
#	112730
#	135584
#	149930
#	165513
#	175343
#	192636
#	204897
#
# Disc length: 2845 seconds
#
# Revision: 0
# Processed by: cddbd v1.5.2PL0 Copyright (c) Steve Scherf et al.
# Submitted via: CDex 1.51
#
DISCID=bf0b1b0d
DTITLE=Jim Lauderdale - Soul Searching Vol. 1 Memphis
DYEAR=2015
DGENRE=Country
TTITLE0=Jim Lauderdale - There's No End To The Sky
TTITLE1=Jim Lauderdale - Way Out Is Fine
TTITLE2=Jim Lauderdale - There's A Storm Out There (But It's Calm In Here)
TTITLE3=Jim Lauderdale - Thank You For Saying Hi
TTITLE4=Jim Lauderdale - Worth The Wait
TTITLE5=Jim Lauderdale - And It Hurts
TTITLE6=Jim Lauderdale - Soul Searching
TTITLE7=Jim Lauderdale - You're The One Who Started It
TTITLE8=Jim Lauderdale - Sad Bell
TTITLE9=Jim Lauderdale - Super Power
TTITLE10=Jim Lauderdale - When A Game
TTITLE11=Jim Lauderdale - Don't Be So Gone
TTITLE12=Jim Lauderdale - Mysterious
EXTD=YEAR: 2015
EXTT0=
EXTT1=
EXTT2=
EXTT3=
EXTT4=
EXTT5=
EXTT6=
EXTT7=
EXTT8=
EXTT9=
EXTT10=
EXTT11=
EXTT12=
PLAYORDER=
